<svg width="20" height="20" viewBox="0 0 20 20" fill="none" xmlns="http://www.w3.org/2000/svg">
<path opacity="0.12" d="M8.5415 4.58334H5.6665C4.26637 4.58334 3.56631 4.58334 3.03153 4.85582C2.56112 5.0955 2.17867 5.47796 1.93899 5.94836C1.6665 6.48314 1.6665 7.18321 1.6665 8.58334L1.6665 9.58334C1.66651 10.3599 1.66651 10.7482 1.79337 11.0545C1.96253 11.4629 2.28699 11.7873 2.69537 11.9565C3.00165 12.0833 3.38994 12.0833 4.16651 12.0833V15.625C4.16651 15.8185 4.16651 15.9152 4.17453 15.9967C4.25247 16.788 4.87852 17.414 5.66981 17.492C5.7513 17.5 5.84803 17.5 6.04151 17.5C6.23498 17.5 6.33172 17.5 6.4132 17.492C7.2045 17.414 7.83055 16.788 7.90848 15.9967C7.91651 15.9152 7.91651 15.8185 7.91651 15.625V12.0833H8.54151C10.0135 12.0833 11.8142 12.8724 13.2034 13.6297C14.0139 14.0715 14.4191 14.2924 14.6845 14.2599C14.9306 14.2298 15.1167 14.1193 15.2609 13.9176C15.4165 13.7001 15.4165 13.265 15.4165 12.3948V4.27191C15.4165 3.40167 15.4165 2.96654 15.2609 2.74908C15.1167 2.54742 14.9306 2.43692 14.6845 2.40678C14.4191 2.37427 14.0139 2.59517 13.2034 3.03696C11.8142 3.79426 10.0135 4.58334 8.5415 4.58334Z" fill="black"/>
<path d="M18.3332 6.66667V10M8.5415 4.58334H5.6665C4.26637 4.58334 3.56631 4.58334 3.03153 4.85582C2.56112 5.0955 2.17867 5.47795 1.93899 5.94836C1.6665 6.48314 1.6665 7.18321 1.6665 8.58334L1.6665 9.58334C1.66651 10.3599 1.66651 10.7482 1.79337 11.0545C1.96253 11.4629 2.28699 11.7873 2.69536 11.9565C3.00165 12.0833 3.38994 12.0833 4.16651 12.0833V15.625C4.16651 15.8185 4.16651 15.9152 4.17453 15.9967C4.25247 16.788 4.87852 17.414 5.66981 17.492C5.75129 17.5 5.84803 17.5 6.04151 17.5C6.23498 17.5 6.33172 17.5 6.4132 17.492C7.2045 17.414 7.83054 16.788 7.90848 15.9967C7.91651 15.9152 7.91651 15.8185 7.91651 15.625V12.0833H8.54151C10.0135 12.0833 11.8142 12.8724 13.2034 13.6297C14.0139 14.0715 14.4191 14.2924 14.6845 14.2599C14.9306 14.2298 15.1167 14.1193 15.2609 13.9176C15.4165 13.7001 15.4165 13.265 15.4165 12.3948V4.27191C15.4165 3.40167 15.4165 2.96654 15.2609 2.74908C15.1167 2.54742 14.9306 2.43692 14.6845 2.40678C14.4191 2.37427 14.0139 2.59517 13.2034 3.03696C11.8142 3.79426 10.0135 4.58334 8.5415 4.58334Z" stroke="black" stroke-width="2" stroke-linecap="round" stroke-linejoin="round"/>
</svg>
