<svg width="20" height="20" viewBox="0 0 20 20" fill="none" xmlns="http://www.w3.org/2000/svg">
<g clip-path="url(#clip0_30_832)">
<path opacity="0.12" d="M1.6665 9.99995C1.6665 14.6023 5.39746 18.3333 9.99984 18.3333C14.321 18.3333 17.8739 15.0444 18.292 10.8333L9.1665 1.70776C4.9554 2.12587 1.6665 5.67883 1.6665 9.99995Z" fill="black"/>
<path d="M12.9165 2.91666V1.66666M16.1993 3.80055L17.0832 2.91666M17.0917 7.08333H18.3417M18.292 10.8333C17.8739 15.0444 14.321 18.3333 9.99984 18.3333C5.39746 18.3333 1.6665 14.6024 1.6665 10C1.6665 5.67887 4.9554 2.12591 9.1665 1.70781M9.99984 6.66666H13.3332V10M13.0162 6.66666C11.0543 9.43966 7.8218 11.25 4.1665 11.25C3.33075 11.25 2.5171 11.1554 1.73569 10.9762" stroke="black" stroke-width="2" stroke-linecap="round" stroke-linejoin="round"/>
</g>
<defs>
<clipPath id="clip0_30_832">
<rect width="20" height="20" fill="white"/>
</clipPath>
</defs>
</svg>
