<svg width="20" height="20" viewBox="0 0 20 20" fill="none" xmlns="http://www.w3.org/2000/svg">
<g clip-path="url(#clip0_30_816)">
<path opacity="0.12" d="M11.3164 11.4916C10.8969 11.6057 10.4555 11.6667 9.99984 11.6667C7.88883 11.6667 6.08337 10.3585 5.34999 8.5085C3.22728 9.08634 1.6665 11.0276 1.6665 13.3334C1.6665 16.0948 3.90508 18.3334 6.6665 18.3334C9.42793 18.3334 11.6665 16.0948 11.6665 13.3334C11.6665 12.683 11.5423 12.0615 11.3164 11.4916Z" fill="black"/>
<path d="M9.99983 17.0602C10.8844 17.8519 12.0526 18.3333 13.3332 18.3333C16.0946 18.3333 18.3332 16.0948 18.3332 13.3333C18.3332 11.0276 16.7724 9.08633 14.6497 8.50848M5.34999 8.50847C3.22728 9.08632 1.6665 11.0276 1.6665 13.3333C1.6665 16.0948 3.90508 18.3333 6.6665 18.3333C9.42793 18.3333 11.6665 16.0948 11.6665 13.3333C11.6665 12.6829 11.5423 12.0615 11.3164 11.4915M14.9998 6.66667C14.9998 9.4281 12.7613 11.6667 9.99984 11.6667C7.23841 11.6667 4.99984 9.4281 4.99984 6.66667C4.99984 3.90525 7.23841 1.66667 9.99984 1.66667C12.7613 1.66667 14.9998 3.90525 14.9998 6.66667Z" stroke="black" stroke-width="2" stroke-linecap="round" stroke-linejoin="round"/>
</g>
<defs>
<clipPath id="clip0_30_816">
<rect width="20" height="20" fill="white"/>
</clipPath>
</defs>
</svg>
