<svg width="20" height="20" viewBox="0 0 20 20" fill="none" xmlns="http://www.w3.org/2000/svg">
<g clip-path="url(#clip0_30_822)">
<g opacity="0.12">
<path d="M2.49984 4.16667C2.49984 3.3901 2.49984 3.00181 2.6267 2.69553C2.79586 2.28715 3.12032 1.96269 3.5287 1.79353C3.83498 1.66667 4.22327 1.66667 4.99984 1.66667H14.9998C15.7764 1.66667 16.1647 1.66667 16.471 1.79353C16.8794 1.96269 17.2038 2.28715 17.373 2.69553C17.4998 3.00181 17.4998 3.3901 17.4998 4.16667C17.4998 4.94324 17.4998 5.33152 17.373 5.63781C17.2038 6.04619 16.8794 6.37064 16.471 6.5398C16.1647 6.66667 15.7764 6.66667 14.9998 6.66667H4.99984C4.22327 6.66667 3.83498 6.66667 3.5287 6.5398C3.12032 6.37064 2.79586 6.04619 2.6267 5.63781C2.49984 5.33152 2.49984 4.94324 2.49984 4.16667Z" fill="black"/>
<path d="M3.33317 18.3333C4.25365 18.3333 4.99984 17.5871 4.99984 16.6667C4.99984 15.7462 4.25365 15 3.33317 15C2.4127 15 1.6665 15.7462 1.6665 16.6667C1.6665 17.5871 2.4127 18.3333 3.33317 18.3333Z" fill="black"/>
<path d="M16.6665 18.3333C17.587 18.3333 18.3332 17.5871 18.3332 16.6667C18.3332 15.7462 17.587 15 16.6665 15C15.746 15 14.9998 15.7462 14.9998 16.6667C14.9998 17.5871 15.746 18.3333 16.6665 18.3333Z" fill="black"/>
<path d="M9.99984 18.3333C10.9203 18.3333 11.6665 17.5871 11.6665 16.6667C11.6665 15.7462 10.9203 15 9.99984 15C9.07936 15 8.33317 15.7462 8.33317 16.6667C8.33317 17.5871 9.07936 18.3333 9.99984 18.3333Z" fill="black"/>
</g>
<path d="M3.33317 15V14.8333C3.33317 13.4332 3.33317 12.7331 3.60565 12.1984C3.84534 11.728 4.22779 11.3455 4.69819 11.1058C5.23297 10.8333 5.93304 10.8333 7.33317 10.8333H12.6665C14.0666 10.8333 14.7667 10.8333 15.3015 11.1058C15.7719 11.3455 16.1543 11.728 16.394 12.1984C16.6665 12.7331 16.6665 13.4332 16.6665 14.8333V15M3.33317 15C2.4127 15 1.6665 15.7462 1.6665 16.6667C1.6665 17.5871 2.4127 18.3333 3.33317 18.3333C4.25365 18.3333 4.99984 17.5871 4.99984 16.6667C4.99984 15.7462 4.25365 15 3.33317 15ZM16.6665 15C15.746 15 14.9998 15.7462 14.9998 16.6667C14.9998 17.5871 15.746 18.3333 16.6665 18.3333C17.587 18.3333 18.3332 17.5871 18.3332 16.6667C18.3332 15.7462 17.587 15 16.6665 15ZM9.99984 15C9.07936 15 8.33317 15.7462 8.33317 16.6667C8.33317 17.5871 9.07936 18.3333 9.99984 18.3333C10.9203 18.3333 11.6665 17.5871 11.6665 16.6667C11.6665 15.7462 10.9203 15 9.99984 15ZM9.99984 15V6.66667M4.99984 6.66667H14.9998C15.7764 6.66667 16.1647 6.66667 16.471 6.5398C16.8794 6.37064 17.2038 6.04619 17.373 5.63781C17.4998 5.33152 17.4998 4.94324 17.4998 4.16667C17.4998 3.3901 17.4998 3.00181 17.373 2.69553C17.2038 2.28715 16.8794 1.96269 16.471 1.79353C16.1647 1.66667 15.7764 1.66667 14.9998 1.66667H4.99984C4.22327 1.66667 3.83498 1.66667 3.5287 1.79353C3.12032 1.96269 2.79586 2.28715 2.6267 2.69553C2.49984 3.00181 2.49984 3.3901 2.49984 4.16667C2.49984 4.94324 2.49984 5.33152 2.6267 5.63781C2.79586 6.04619 3.12032 6.37064 3.5287 6.5398C3.83498 6.66667 4.22327 6.66667 4.99984 6.66667Z" stroke="black" stroke-width="2" stroke-linecap="round" stroke-linejoin="round"/>
</g>
<defs>
<clipPath id="clip0_30_822">
<rect width="20" height="20" fill="white"/>
</clipPath>
</defs>
</svg>
