<svg width="20" height="20" viewBox="0 0 20 20" fill="none" xmlns="http://www.w3.org/2000/svg">
<g opacity="0.12">
<path d="M5.30468 16.3619L12.3905 9.27614C12.7205 8.94613 12.8855 8.78112 13.0758 8.7193C13.2431 8.66492 13.4234 8.66492 13.5908 8.7193C13.7811 8.78112 13.9461 8.94613 14.2761 9.27614L17.4999 12.5V13.5C17.4999 14.9001 17.4999 15.6002 17.2275 16.135C16.9878 16.6054 16.6053 16.9878 16.1349 17.2275C15.6001 17.5 14.9001 17.5 13.4999 17.5H5.77608C5.27124 17.5 5.01881 17.5 4.90192 17.4002C4.8005 17.3135 4.74668 17.1836 4.75715 17.0506C4.76921 16.8974 4.9477 16.7189 5.30468 16.3619Z" fill="black"/>
<path d="M7.08327 8.75C8.00375 8.75 8.74994 8.00381 8.74994 7.08333C8.74994 6.16286 8.00375 5.41667 7.08327 5.41667C6.1628 5.41667 5.41661 6.16286 5.41661 7.08333C5.41661 8.00381 6.1628 8.75 7.08327 8.75Z" fill="black"/>
</g>
<path d="M13.5 17.5H5.77614C5.2713 17.5 5.01887 17.5 4.90199 17.4002C4.80056 17.3135 4.74674 17.1836 4.75721 17.0506C4.76927 16.8974 4.94776 16.7189 5.30474 16.3619L12.3905 9.27614C12.7205 8.94613 12.8855 8.78112 13.0758 8.7193C13.2432 8.66492 13.4235 8.66492 13.5908 8.7193C13.7811 8.78112 13.9461 8.94613 14.2761 9.27614L17.5 12.5V13.5M13.5 17.5C14.9001 17.5 15.6002 17.5 16.135 17.2275C16.6054 16.9878 16.9878 16.6054 17.2275 16.135C17.5 15.6002 17.5 14.9001 17.5 13.5M13.5 17.5H6.5C5.09987 17.5 4.3998 17.5 3.86502 17.2275C3.39462 16.9878 3.01217 16.6054 2.77248 16.135C2.5 15.6002 2.5 14.9001 2.5 13.5V6.5C2.5 5.09987 2.5 4.3998 2.77248 3.86502C3.01217 3.39462 3.39462 3.01217 3.86502 2.77248C4.3998 2.5 5.09987 2.5 6.5 2.5H13.5C14.9001 2.5 15.6002 2.5 16.135 2.77248C16.6054 3.01217 16.9878 3.39462 17.2275 3.86502C17.5 4.3998 17.5 5.09987 17.5 6.5V13.5M8.75 7.08333C8.75 8.00381 8.00381 8.75 7.08333 8.75C6.16286 8.75 5.41667 8.00381 5.41667 7.08333C5.41667 6.16286 6.16286 5.41667 7.08333 5.41667C8.00381 5.41667 8.75 6.16286 8.75 7.08333Z" stroke="black" stroke-width="2" stroke-linecap="round" stroke-linejoin="round"/>
</svg>
