<svg width="20" height="20" viewBox="0 0 20 20" fill="none" xmlns="http://www.w3.org/2000/svg">
<path opacity="0.12" d="M12.5277 3.33333H7.47197C6.57458 3.33333 6.12588 3.33333 5.72974 3.46997C5.37943 3.5908 5.06036 3.788 4.79562 4.04729C4.49625 4.3405 4.29559 4.74183 3.89426 5.54448L1.6665 10H4.90148C5.47248 10 5.99448 10.3226 6.24984 10.8333C6.5052 11.3441 7.02719 11.6667 7.5982 11.6667H12.4015C12.9725 11.6667 13.4945 11.3441 13.7498 10.8333C14.0052 10.3226 14.5272 10 15.0982 10H18.3332L16.1054 5.54448C15.7041 4.74183 15.5034 4.3405 15.204 4.04729C14.9393 3.788 14.6202 3.5908 14.2699 3.46997C13.8738 3.33333 13.4251 3.33333 12.5277 3.33333Z" fill="black"/>
<path d="M2.08317 10H4.90148C5.47248 10 5.99448 10.3226 6.24984 10.8333C6.5052 11.3441 7.02719 11.6667 7.5982 11.6667H12.4015C12.9725 11.6667 13.4945 11.3441 13.7498 10.8333C14.0052 10.3226 14.5272 10 15.0982 10H17.9165M7.47197 3.33333H12.5277C13.4251 3.33333 13.8738 3.33333 14.2699 3.46997C14.6202 3.5908 14.9393 3.788 15.204 4.04729C15.5034 4.3405 15.7041 4.74183 16.1054 5.54448L17.9109 9.15542C18.0684 9.47041 18.1471 9.6279 18.2027 9.79296C18.252 9.93954 18.2876 10.0904 18.309 10.2436C18.3332 10.416 18.3332 10.5921 18.3332 10.9443V12.6667C18.3332 14.0668 18.3332 14.7669 18.0607 15.3016C17.821 15.772 17.4386 16.1545 16.9681 16.3942C16.4334 16.6667 15.7333 16.6667 14.3332 16.6667H5.6665C4.26637 16.6667 3.56631 16.6667 3.03153 16.3942C2.56112 16.1545 2.17867 15.772 1.93899 15.3016C1.6665 14.7669 1.6665 14.0668 1.6665 12.6667V10.9443C1.6665 10.5921 1.6665 10.416 1.69065 10.2436C1.71209 10.0904 1.7477 9.93954 1.79702 9.79296C1.85255 9.6279 1.9313 9.4704 2.0888 9.15542L3.89426 5.54448C4.29559 4.74183 4.49625 4.3405 4.79562 4.04729C5.06036 3.788 5.37943 3.5908 5.72974 3.46997C6.12588 3.33333 6.57458 3.33333 7.47197 3.33333Z" stroke="black" stroke-width="2" stroke-linecap="round" stroke-linejoin="round"/>
</svg>
