<svg width="25" height="25" viewBox="0 0 25 25" fill="none" xmlns="http://www.w3.org/2000/svg">
<path opacity="0.12" d="M14.3351 12.9654C13.6739 13.4283 13.3433 13.6597 12.9837 13.7493C12.6661 13.8285 12.3339 13.8285 12.0163 13.7493C11.6567 13.6597 11.3261 13.4283 10.6649 12.9654L2.5 7.25C2.5 5.59315 3.84315 4.25 5.5 4.25H19.5C21.1569 4.25 22.5 5.59315 22.5 7.25L14.3351 12.9654Z" fill="#C9CACD"/>
<path d="M22 18.25L15.3571 12.25M9.64286 12.25L3.00003 18.25M2.5 7.25L10.6649 12.9654C11.3261 13.4283 11.6567 13.6597 12.0163 13.7493C12.3339 13.8285 12.6661 13.8285 12.9837 13.7493C13.3433 13.6597 13.6739 13.4283 14.3351 12.9654L22.5 7.25M7.3 20.25H17.7C19.3802 20.25 20.2202 20.25 20.862 19.923C21.4265 19.6354 21.8854 19.1765 22.173 18.612C22.5 17.9702 22.5 17.1302 22.5 15.45V9.05C22.5 7.36984 22.5 6.52976 22.173 5.88803C21.8854 5.32354 21.4265 4.8646 20.862 4.57698C20.2202 4.25 19.3802 4.25 17.7 4.25H7.3C5.61984 4.25 4.77976 4.25 4.13803 4.57698C3.57354 4.8646 3.1146 5.32354 2.82698 5.88803C2.5 6.52976 2.5 7.36984 2.5 9.05V15.45C2.5 17.1302 2.5 17.9702 2.82698 18.612C3.1146 19.1765 3.57354 19.6354 4.13803 19.923C4.77976 20.25 5.61984 20.25 7.3 20.25Z" stroke="#C9CACD" stroke-width="2" stroke-linecap="round" stroke-linejoin="round"/>
</svg>
