<svg width="25" height="25" viewBox="0 0 25 25" fill="none" xmlns="http://www.w3.org/2000/svg">
<path opacity="0.12" d="M7.88076 10.6034C8.57676 12.053 9.52555 13.4116 10.7271 14.6132C11.9287 15.8148 13.2873 16.7636 14.737 17.4596C14.8617 17.5194 14.924 17.5494 15.0029 17.5724C15.2832 17.6541 15.6275 17.5954 15.8649 17.4254C15.9317 17.3775 15.9889 17.3204 16.1032 17.2061C16.4528 16.8564 16.6276 16.6816 16.8034 16.5674C17.4663 16.1364 18.3209 16.1364 18.9838 16.5674C19.1595 16.6816 19.3343 16.8564 19.684 17.2061L19.8788 17.4009C20.4103 17.9324 20.676 18.1981 20.8203 18.4835C21.1074 19.051 21.1074 19.7213 20.8203 20.2889C20.676 20.5742 20.4103 20.84 19.8788 21.3714L19.7212 21.529C19.1916 22.0587 18.9268 22.3235 18.5667 22.5257C18.1672 22.7501 17.5467 22.9115 17.0885 22.9101C16.6756 22.9089 16.3933 22.8288 15.8289 22.6686C12.7955 21.8076 9.93313 20.1832 7.54515 17.7952C5.15717 15.4072 3.53269 12.5448 2.67172 9.51144C2.51152 8.94699 2.43141 8.66477 2.43018 8.25182C2.42882 7.7936 2.59018 7.17311 2.8146 6.7736C3.01685 6.41357 3.28166 6.14876 3.81129 5.61913L3.96892 5.4615C4.50036 4.93006 4.76608 4.66433 5.05146 4.51999C5.61903 4.23292 6.28929 4.23292 6.85685 4.51999C7.14223 4.66433 7.40795 4.93006 7.9394 5.4615L8.13427 5.65637C8.48387 6.00597 8.65867 6.18078 8.77296 6.35655C9.20396 7.01944 9.20396 7.87403 8.77296 8.53692C8.65868 8.71269 8.48387 8.8875 8.13427 9.2371C8.01995 9.35142 7.9628 9.40857 7.91496 9.47538C7.74495 9.71281 7.68624 10.0571 7.76797 10.3374C7.79097 10.4163 7.8209 10.4787 7.88076 10.6034Z" fill="#C9CACD"/>
<path d="M14.5501 6.75C15.5269 6.94057 16.4245 7.41826 17.1282 8.12194C17.8319 8.82561 18.3096 9.72326 18.5001 10.7M14.5501 2.75C16.5794 2.97544 18.4717 3.88417 19.9164 5.32701C21.361 6.76984 22.2722 8.66101 22.5001 10.69M10.7271 14.6131C9.52555 13.4115 8.57676 12.0528 7.88076 10.6032C7.8209 10.4785 7.79097 10.4162 7.76797 10.3373C7.68624 10.0569 7.74495 9.71269 7.91496 9.47526C7.9628 9.40845 8.01995 9.35129 8.13427 9.23698C8.48387 8.88737 8.65868 8.71257 8.77296 8.53679C9.20396 7.8739 9.20396 7.01932 8.77296 6.35643C8.65867 6.18065 8.48387 6.00585 8.13427 5.65624L7.9394 5.46137C7.40795 4.92993 7.14223 4.66421 6.85685 4.51987C6.28929 4.2328 5.61903 4.2328 5.05146 4.51987C4.76608 4.66421 4.50036 4.92993 3.96892 5.46137L3.81129 5.61901C3.28166 6.14863 3.01685 6.41344 2.8146 6.77348C2.59018 7.17298 2.42882 7.79347 2.43018 8.2517C2.43141 8.66464 2.51152 8.94687 2.67172 9.51131C3.53269 12.5447 5.15717 15.4071 7.54515 17.795C9.93313 20.183 12.7955 21.8075 15.8289 22.6685C16.3933 22.8287 16.6756 22.9088 17.0885 22.91C17.5467 22.9114 18.1672 22.75 18.5667 22.5256C18.9268 22.3233 19.1916 22.0585 19.7212 21.5289L19.8788 21.3713C20.4103 20.8398 20.676 20.5741 20.8203 20.2887C21.1074 19.7212 21.1074 19.0509 20.8203 18.4833C20.676 18.198 20.4103 17.9322 19.8788 17.4008L19.684 17.2059C19.3343 16.8563 19.1595 16.6815 18.9838 16.5672C18.3209 16.1362 17.4663 16.1362 16.8034 16.5672C16.6276 16.6815 16.4528 16.8563 16.1032 17.2059C15.9889 17.3202 15.9317 17.3774 15.8649 17.4252C15.6275 17.5953 15.2832 17.654 15.0029 17.5722C14.924 17.5492 14.8617 17.5193 14.737 17.4594C13.2873 16.7634 11.9287 15.8146 10.7271 14.6131Z" stroke="#C9CACD" stroke-width="2" stroke-linecap="round" stroke-linejoin="round"/>
</svg>
