<svg width="20" height="20" viewBox="0 0 20 20" fill="none" xmlns="http://www.w3.org/2000/svg">
<path opacity="0.12" d="M9.4185 18.0125C9.603 18.1201 9.69524 18.1739 9.82543 18.2019C9.92646 18.2235 10.0739 18.2235 10.1749 18.2019C10.3051 18.1739 10.3973 18.1201 10.5818 18.0125C12.2052 17.0654 16.6668 14.0905 16.6668 10.0001V6.01476C16.6668 5.3485 16.6668 5.01537 16.5579 4.72902C16.4616 4.47605 16.3052 4.25033 16.1021 4.07137C15.8722 3.8688 15.5603 3.75183 14.9365 3.51789L10.4683 1.84233C10.2951 1.77736 10.2085 1.74487 10.1193 1.732C10.0403 1.72058 9.96003 1.72058 9.88098 1.732C9.79187 1.74487 9.70524 1.77736 9.532 1.84233L5.06383 3.51789C4.43999 3.75183 4.12808 3.8688 3.89821 4.07137C3.69515 4.25033 3.53872 4.47605 3.44246 4.72902C3.3335 5.01537 3.3335 5.3485 3.3335 6.01476V10.0001C3.3335 14.0905 7.79513 17.0654 9.4185 18.0125Z" fill="black"/>
<path d="M7.67763 12.0833C7.9378 12.5788 8.4573 12.9167 9.05572 12.9167H10.8335C11.754 12.9167 12.5002 12.1705 12.5002 11.25C12.5002 10.3295 11.754 9.58333 10.8335 9.58333H9.16683C8.24635 9.58333 7.50016 8.83714 7.50016 7.91667C7.50016 6.99619 8.24635 6.25 9.16683 6.25H10.9446C11.543 6.25 12.0625 6.58791 12.3227 7.08333M10.0002 5V6.25M10.0002 12.9167V14.1667M16.6668 10C16.6668 14.0904 12.2052 17.0653 10.5818 18.0124C10.3973 18.12 10.3051 18.1738 10.1749 18.2018C10.0739 18.2234 9.92646 18.2234 9.82543 18.2018C9.69524 18.1738 9.603 18.12 9.4185 18.0124C7.79513 17.0653 3.3335 14.0904 3.3335 10V6.01467C3.3335 5.34841 3.3335 5.01528 3.44246 4.72892C3.53872 4.47595 3.69515 4.25023 3.89821 4.07128C4.12808 3.8687 4.43999 3.75173 5.06383 3.51779L9.532 1.84223C9.70524 1.77726 9.79187 1.74478 9.88098 1.7319C9.96003 1.72048 10.0403 1.72048 10.1193 1.7319C10.2085 1.74478 10.2951 1.77726 10.4683 1.84223L14.9365 3.51779C15.5603 3.75173 15.8722 3.8687 16.1021 4.07128C16.3052 4.25023 16.4616 4.47595 16.5579 4.72892C16.6668 5.01528 16.6668 5.34841 16.6668 6.01467V10Z" stroke="black" stroke-width="2" stroke-linecap="round" stroke-linejoin="round"/>
</svg>
