<svg width="267" height="32" viewBox="0 0 267 32" fill="none" xmlns="http://www.w3.org/2000/svg">
<path d="M29.9976 22.3992C30.0056 26.5752 26.6296 29.9648 22.4552 29.9728L9.58878 29.9952C5.41517 30.0032 2.02797 26.6248 2.01997 22.448L1.99757 9.59119C1.98957 5.41519 5.36557 2.02559 9.53998 2.01759L22.4064 1.99519C26.58 1.98719 29.9672 5.36559 29.9752 9.54239L29.9976 22.3992ZM27.8448 9.65039C27.8504 6.63679 25.4104 4.18799 22.3992 4.18239L9.62078 4.15999C6.60877 4.15439 4.16157 6.59519 4.15597 9.60879L4.13357 22.3344C4.12797 25.348 6.56797 27.7968 9.57917 27.8024L22.3576 27.8248C25.3696 27.8304 27.8168 25.3896 27.8224 22.376L27.8448 9.65039Z" fill="#ACB5BC"/>
<path d="M10.4169 11.7616C11.1967 11.7616 11.8289 11.1291 11.8289 10.3488C11.8289 9.56852 11.1967 8.93599 10.4169 8.93599C9.63706 8.93599 9.00488 9.56852 9.00488 10.3488C9.00488 11.1291 9.63706 11.7616 10.4169 11.7616Z" fill="#ACB5BC"/>
<path d="M9.33136 14.6538L9.31771 22.4722C9.31672 23.0408 9.77688 23.5026 10.3455 23.5036L10.4119 23.5037C10.9805 23.5047 11.4423 23.0445 11.4433 22.4759L11.457 14.6575C11.4579 14.0888 10.9978 13.6271 10.4292 13.6261L10.3628 13.626C9.79412 13.625 9.33235 14.0851 9.33136 14.6538Z" fill="#ACB5BC"/>
<path d="M20.6664 14.0464C21.628 14.484 22.3328 15.2432 22.7808 16.3288C23.0432 16.96 23.1552 17.7744 23.1168 18.772C23.0728 19.9912 23.076 21.1416 23.1248 22.2272C23.16 23.0032 22.8024 23.416 22.0512 23.4624H22.0072C21.3048 23.4488 20.9504 23.0856 20.9416 22.3664C20.928 20.9912 20.936 19.6 20.9664 18.1896C20.9776 17.6432 20.8624 17.1728 20.6192 16.7792C20.2448 16.1752 19.696 15.8448 18.972 15.784C18.3848 15.7344 17.8632 15.9016 17.4096 16.2872C17.128 16.5248 16.9232 16.8144 16.792 17.1616C16.6744 17.468 16.6168 17.804 16.62 18.1672C16.628 19.52 16.636 20.9336 16.6392 22.4064C16.6416 23.1112 16.276 23.472 15.5464 23.4912C15.5328 23.4912 15.516 23.4912 15.5024 23.4888C14.7728 23.4096 14.4176 23.0024 14.4424 22.2672C14.4752 21.2344 14.4728 20.152 14.4344 19.0232C14.3936 17.8288 14.5216 16.8968 14.8192 16.2272C15.3272 15.0872 16.1464 14.3168 17.2808 13.9176C18.4416 13.508 19.5696 13.5512 20.6656 14.0464H20.6664Z" fill="#ACB5BC"/>
<path d="M77 22.356C77.016 26.5336 73.64 29.9312 69.4616 29.9472L56.6361 29.992C52.4585 30.008 49.0609 26.632 49.0449 22.4536L49.0001 9.644C48.9841 5.46641 52.3601 2.06881 56.5385 2.05281L69.364 2.00801C73.5416 1.99201 76.9392 5.36801 76.9552 9.5464L77 22.356ZM69.4184 16.2296C70.9272 16.2568 70.8296 18.3256 69.3912 18.328C68.1192 18.3304 66.7984 18.3304 65.4288 18.328C65.3824 18.328 65.3472 18.3632 65.3472 18.4096V27.6528C65.3472 27.7568 65.4344 27.8408 65.5408 27.8384C67.3256 27.7672 69.5336 28.0648 71.1704 27.4648C73.8392 26.4904 74.8896 24.1952 74.852 21.4664C74.8056 17.968 74.8056 14.3496 74.8576 10.608C74.8712 9.41841 74.7344 8.4416 74.4456 7.67441C73.5856 5.40081 71.528 4.17601 69.1352 4.19201C64.9248 4.22241 60.7544 4.22241 56.6313 4.19761C54.3361 4.18401 52.4121 5.52081 51.5145 7.6304C51.2801 8.184 51.1625 8.708 51.1625 9.1992C51.1681 13.192 51.1649 17.4792 51.1545 22.0608C51.1521 23.4992 51.5233 24.7024 52.2705 25.6712C52.9825 26.5936 53.8721 27.2184 54.9369 27.5456C55.6489 27.7664 56.6889 27.8592 58.0537 27.8264C59.8193 27.7856 61.5 27.7856 63.0992 27.8288C63.1592 27.8312 63.208 27.7824 63.208 27.7224L63.1728 18.4688C63.1728 18.3568 63.1152 18.3024 63.004 18.3104C62.6576 18.3352 62.3024 18.3544 61.9344 18.3728C60.2536 18.4576 60.12 16.1544 61.7296 16.2032C62.1856 16.2168 62.6272 16.2168 63.0504 16.2008C63.1544 16.1952 63.2336 16.108 63.2248 16.004C63.1592 15.0624 63.0968 14.0448 63.4128 13.1464C64.0104 11.452 65.1488 10.3736 66.824 9.9128C67.5632 9.708 68.508 9.6648 69.6568 9.7792C70.1672 9.8312 70.4424 10.112 70.484 10.6248L70.4976 10.78C70.5496 11.4544 70.2408 11.8224 69.5696 11.8856C69.196 11.9208 68.7976 11.9296 68.3744 11.9048C66.6664 11.8064 65.2856 13.0976 65.3424 14.8496C65.356 15.2536 65.3504 15.6544 65.3232 16.056C65.3176 16.1432 65.3856 16.2168 65.4736 16.2144C66.808 16.2008 68.1232 16.2032 69.42 16.228L69.4184 16.2296Z" fill="#ACB5BC"/>
<path d="M123.978 22.468C123.97 26.6304 120.592 29.9968 116.43 29.9888L103.521 29.9664C99.3584 29.9584 95.992 26.5808 96 22.4192L96.0224 9.532C96.0304 5.3696 99.408 2.0032 103.57 2.0112L116.479 2.0336C120.642 2.0416 124.008 5.4192 124 9.5808L123.978 22.468ZM121.854 9.6536C121.86 6.6376 119.419 4.1896 116.404 4.184L103.621 4.1616C100.605 4.156 98.1568 6.5968 98.1512 9.612L98.1288 22.3304C98.1232 25.3464 100.564 27.7944 103.579 27.8L116.363 27.8224C119.379 27.828 121.827 25.3872 121.833 22.372L121.855 9.6536H121.854Z" fill="#ACB5BC"/>
<path d="M117.069 10.4552C117.937 10.4552 118.641 9.75175 118.641 8.884C118.641 8.01626 117.937 7.31281 117.069 7.31281C116.202 7.31281 115.498 8.01626 115.498 8.884C115.498 9.75175 116.202 10.4552 117.069 10.4552Z" fill="#ACB5BC"/>
<path d="M116.217 15.9784C116.217 19.4296 113.422 22.2256 109.97 22.2256C106.518 22.2256 103.722 19.4304 103.722 15.9784C103.722 12.5264 106.518 9.7312 109.97 9.7312C113.422 9.7312 116.217 12.5264 116.217 15.9784ZM114.047 15.9728C114.047 13.7208 112.222 11.8952 109.97 11.8952C107.718 11.8952 105.892 13.7208 105.892 15.9728C105.892 18.2248 107.718 20.0504 109.97 20.0504C112.222 20.0504 114.047 18.2248 114.047 15.9728Z" fill="#ACB5BC"/>
<path d="M153.272 9.9808C153.335 10.0136 153.411 9.9808 153.43 9.9128C154.595 5.7416 157.348 3.776 161.691 4.016C163.591 4.12 165.174 4.888 166.442 6.3232C166.571 6.468 166.754 6.5504 166.948 6.5504L169.958 6.548C170.789 6.548 171.283 7.472 170.824 8.1632C169.457 10.2136 168.722 11.3232 168.621 11.4904C168.492 11.7008 168.418 11.9304 168.405 12.1736C168.287 14.1968 168.025 16.1288 167.382 18.0976C165.758 23.0808 161.855 26.6072 156.784 27.6656C151.166 28.8352 146.382 27.4056 143.282 22.5048C142.758 21.6736 142.962 21.072 143.9 20.7008C144.504 20.46 145.136 20.2632 145.794 20.1104C145.939 20.0776 146.005 19.9056 145.914 19.7848C144.342 17.6552 143.498 15.3208 143.38 12.7784C143.243 9.8728 143.902 7.2864 145.359 5.02C145.521 4.7688 145.698 4.528 145.886 4.2984C146.398 3.6808 147.264 3.9536 147.628 4.5824C148.986 6.9304 150.867 8.7296 153.27 9.9816L153.272 9.9808ZM148.843 19.9208C149.275 20.4208 149.081 21.1976 148.463 21.4352C147.728 21.7168 146.962 21.9624 146.173 22.1736C145.935 22.2368 145.891 22.368 146.042 22.5616C148.802 26.1232 153.31 26.4792 157.406 25.2648C163.373 23.4992 166.233 17.824 166.224 11.848C166.224 11.4848 166.328 11.0304 166.53 10.7248C166.926 10.1264 167.356 9.5032 167.815 8.8496C167.873 8.7672 167.813 8.6584 167.711 8.6584L166.019 8.6888C165.68 8.6944 165.36 8.5328 165.163 8.2568C164.346 7.1224 163.406 6.3952 161.957 6.2008C158.365 5.7168 155.656 7.7864 155.481 11.4736C155.426 12.5944 154.458 12.7256 153.598 12.4192C150.834 11.4352 148.499 9.612 146.791 7.2336C146.726 7.1432 146.589 7.1568 146.542 7.2584C145.638 9.2568 145.329 11.364 145.616 13.5816C145.942 16.064 147.185 17.9992 148.845 19.9208H148.843Z" fill="#ACB5BC"/>
<path d="M218 22.48C218.008 26.6296 214.651 29.9968 210.502 30.0048L197.547 30.0272C193.398 30.0352 190.03 26.676 190.022 22.5288L190 9.5192C189.992 5.3696 193.349 2.0024 197.498 1.9944L210.453 1.972C214.602 1.964 217.97 5.3232 217.978 9.4704L218 22.48ZM215.85 9.6128C215.85 6.6008 213.407 4.1584 210.395 4.1584H197.599C194.587 4.1584 192.145 6.6008 192.145 9.6128V22.4088C192.145 25.4208 194.587 27.8632 197.599 27.8632H210.395C213.407 27.8632 215.85 25.4208 215.85 22.4088V9.6128Z" fill="#ACB5BC"/>
<path d="M209.766 17.0808C208.215 17.092 206.602 17.0944 204.93 17.092C203.423 17.0896 203.396 14.92 205.026 14.9232C206.974 14.9256 209.009 14.9256 211.132 14.9288C211.714 14.9288 212.21 15.3088 212.218 15.9216C212.239 17.6368 211.838 19.1216 211.011 20.3744C209.252 23.0472 206.782 24.3408 203.601 24.2528C199.886 24.1512 196.535 21.3176 195.92 17.7128C195.386 14.5864 196.202 12.0016 198.371 9.9608C201.347 7.1568 205.998 7.0424 209.176 9.5864C209.567 9.8984 209.712 10.3 209.616 10.7896C209.449 11.6376 208.475 11.7472 207.866 11.304C205.532 9.608 203.215 9.4384 200.921 10.7928C198.054 12.4832 197.047 16.0856 198.691 19.0128C201.416 23.8624 208.779 22.744 209.928 17.2816C209.958 17.1472 209.903 17.0816 209.766 17.0816V17.0808Z" fill="#ACB5BC"/>
<path d="M259.76 4.71839C263.202 4.99919 264.417 7.09999 264.714 10.2864C265.119 14.6056 265.092 18.6464 264.638 22.4064C264.339 24.8704 263.021 26.892 260.465 27.1776C257.094 27.5552 252.932 27.6944 247.978 27.5952C246.194 27.5576 244.339 27.4584 242.414 27.2944C239.934 27.0832 238.207 26.1368 237.596 23.6928C237.35 22.7072 237.194 21.6144 237.126 20.4144C236.926 16.9152 236.962 13.5376 237.238 10.2816C237.459 7.64639 238.482 5.24479 241.416 4.84479C242.452 4.70319 243.487 4.60639 244.523 4.55199C249.861 4.26879 254.939 4.32319 259.76 4.71839ZM262.786 10.376C262.639 8.71199 262.053 6.91919 260.096 6.73999C254.562 6.23119 248.905 6.18879 243.126 6.61839C240.95 6.77759 239.599 7.18239 239.306 9.5888C238.794 13.7888 238.791 18.0776 239.301 22.4616C239.507 24.2272 240.493 25.1784 242.264 25.32C247.971 25.7696 253.398 25.8016 258.544 25.4216C259.778 25.3296 260.595 25.1952 260.995 25.0168C261.793 24.6568 262.299 24.0312 262.513 23.1392C262.724 22.2528 262.866 21.1104 262.938 19.7072C263.099 16.4888 263.047 13.3792 262.786 10.376H262.786Z" fill="#ACB5BC"/>
<path d="M248.872 11.2376L255.69 15.1688C256.33 15.5392 256.33 16.4624 255.69 16.8328L248.872 20.764C248.231 21.1344 247.431 20.6696 247.431 19.932V12.0688C247.431 11.3312 248.231 10.8664 248.872 11.2368V11.2376ZM249.508 13.9176C249.438 13.88 249.354 13.9304 249.354 14.0096L249.367 18.0056C249.37 18.0872 249.454 18.1376 249.524 18.0976L253.063 16.0856C253.133 16.0456 253.133 15.944 253.063 15.904L249.509 13.9168L249.508 13.9176Z" fill="#ACB5BC"/>
</svg>
