<svg width="20" height="20" viewBox="0 0 20 20" fill="none" xmlns="http://www.w3.org/2000/svg">
<g clip-path="url(#clip0_30_848)">
<g opacity="0.12">
<path d="M5.4165 1.66667L6.07022 2.9741C6.29146 3.41658 6.40208 3.63783 6.54986 3.82954C6.681 3.99967 6.83351 4.15218 7.00363 4.28331C7.19535 4.43109 7.41659 4.54172 7.85907 4.76296L9.1665 5.41667L7.85907 6.07039C7.41659 6.29163 7.19535 6.40225 7.00363 6.55003C6.83351 6.68117 6.681 6.83368 6.54986 7.0038C6.40208 7.19552 6.29146 7.41676 6.07022 7.85924L5.4165 9.16667L4.76279 7.85924C4.54155 7.41676 4.43093 7.19552 4.28314 7.0038C4.15201 6.83368 3.9995 6.68117 3.82938 6.55003C3.63766 6.40225 3.41642 6.29163 2.97393 6.07039L1.6665 5.41667L2.97393 4.76296C3.41642 4.54172 3.63766 4.43109 3.82938 4.28331C3.9995 4.15218 4.15201 3.99967 4.28314 3.82954C4.43093 3.63783 4.54155 3.41658 4.76279 2.9741L5.4165 1.66667Z" fill="black"/>
<path d="M14.1665 10L14.9591 11.5852C15.1803 12.0277 15.291 12.2489 15.4388 12.4407C15.5699 12.6108 15.7224 12.7633 15.8925 12.8944C16.0842 13.0422 16.3055 13.1528 16.748 13.3741L18.3332 14.1667L16.748 14.9593C16.3055 15.1805 16.0842 15.2911 15.8925 15.4389C15.7224 15.5701 15.5699 15.7226 15.4388 15.8927C15.291 16.0844 15.1803 16.3056 14.9591 16.7481L14.1665 18.3333L13.3739 16.7481C13.1527 16.3056 13.042 16.0844 12.8943 15.8927C12.7631 15.7226 12.6106 15.5701 12.4405 15.4389C12.2488 15.2911 12.0275 15.1805 11.585 14.9593L9.99984 14.1667L11.585 13.3741C12.0275 13.1528 12.2488 13.0422 12.4405 12.8944C12.6106 12.7633 12.7631 12.6108 12.8943 12.4407C13.042 12.2489 13.1527 12.0277 13.3739 11.5852L14.1665 10Z" fill="black"/>
</g>
<path d="M15.4165 6.66667V2.50001M4.58317 17.5V13.3333M13.3332 4.58334H17.4998M2.49984 15.4167H6.6665M5.4165 1.66667L4.76279 2.9741C4.54155 3.41658 4.43093 3.63783 4.28314 3.82954C4.15201 3.99967 3.9995 4.15218 3.82938 4.28331C3.63766 4.43109 3.41642 4.54172 2.97393 4.76296L1.6665 5.41667L2.97393 6.07039C3.41642 6.29163 3.63766 6.40225 3.82938 6.55003C3.9995 6.68117 4.15201 6.83368 4.28314 7.0038C4.43093 7.19552 4.54155 7.41676 4.76279 7.85924L5.4165 9.16667L6.07022 7.85924C6.29146 7.41676 6.40208 7.19552 6.54986 7.0038C6.681 6.83368 6.83351 6.68117 7.00363 6.55003C7.19535 6.40225 7.41659 6.29163 7.85907 6.07039L9.1665 5.41667L7.85907 4.76296C7.41659 4.54172 7.19535 4.43109 7.00363 4.28331C6.83351 4.15218 6.681 3.99967 6.54986 3.82954C6.40208 3.63783 6.29146 3.41658 6.07022 2.9741L5.4165 1.66667ZM14.1665 10L13.3739 11.5852C13.1527 12.0277 13.042 12.2489 12.8943 12.4407C12.7631 12.6108 12.6106 12.7633 12.4405 12.8944C12.2488 13.0422 12.0275 13.1528 11.585 13.3741L9.99984 14.1667L11.585 14.9593C12.0275 15.1805 12.2488 15.2911 12.4405 15.4389C12.6106 15.5701 12.7631 15.7226 12.8943 15.8927C13.042 16.0844 13.1527 16.3056 13.3739 16.7481L14.1665 18.3333L14.9591 16.7481C15.1803 16.3056 15.291 16.0844 15.4388 15.8927C15.5699 15.7226 15.7224 15.5701 15.8925 15.4389C16.0842 15.2911 16.3055 15.1805 16.748 14.9593L18.3332 14.1667L16.748 13.3741C16.3055 13.1528 16.0842 13.0422 15.8925 12.8944C15.7224 12.7633 15.5699 12.6108 15.4388 12.4407C15.291 12.2489 15.1803 12.0277 14.9591 11.5852L14.1665 10Z" stroke="black" stroke-width="2" stroke-linecap="round" stroke-linejoin="round"/>
</g>
<defs>
<clipPath id="clip0_30_848">
<rect width="20" height="20" fill="white"/>
</clipPath>
</defs>
</svg>
