<svg width="20" height="20" viewBox="0 0 20 20" fill="none" xmlns="http://www.w3.org/2000/svg">
<path opacity="0.12" d="M1.6665 8.16667C1.6665 6.76653 1.6665 6.06647 1.93899 5.53169C2.17867 5.06128 2.56112 4.67883 3.03153 4.43915C3.56631 4.16666 4.26637 4.16666 5.6665 4.16666H10.1665C11.5666 4.16666 12.2667 4.16666 12.8015 4.43915C13.2719 4.67883 13.6543 5.06128 13.894 5.53169C14.1665 6.06647 14.1665 6.76653 14.1665 8.16666V11.8333C14.1665 13.2335 14.1665 13.9335 13.894 14.4683C13.6543 14.9387 13.2719 15.3212 12.8015 15.5608C12.2667 15.8333 11.5666 15.8333 10.1665 15.8333H5.6665C4.26637 15.8333 3.56631 15.8333 3.03153 15.5608C2.56112 15.3212 2.17867 14.9387 1.93899 14.4683C1.6665 13.9335 1.6665 13.2335 1.6665 11.8333V8.16667Z" fill="black" stroke="black" stroke-width="2" stroke-linecap="round" stroke-linejoin="round"/>
<path d="M18.3332 7.44281C18.3332 6.93796 18.3332 6.68554 18.2333 6.56865C18.1467 6.46723 18.0168 6.41341 17.8838 6.42387C17.7306 6.43593 17.5521 6.61442 17.1951 6.9714L14.1665 10L17.1951 13.0286C17.5521 13.3856 17.7306 13.5641 17.8838 13.5761C18.0168 13.5866 18.1467 13.5328 18.2333 13.4313C18.3332 13.3145 18.3332 13.062 18.3332 12.5572V7.44281Z" stroke="black" stroke-width="2" stroke-linecap="round" stroke-linejoin="round"/>
<path d="M1.6665 8.16666C1.6665 6.76653 1.6665 6.06647 1.93899 5.53169C2.17867 5.06128 2.56112 4.67883 3.03153 4.43915C3.56631 4.16666 4.26637 4.16666 5.6665 4.16666H10.1665C11.5666 4.16666 12.2667 4.16666 12.8015 4.43915C13.2719 4.67883 13.6543 5.06128 13.894 5.53169C14.1665 6.06647 14.1665 6.76653 14.1665 8.16666V11.8333C14.1665 13.2335 14.1665 13.9335 13.894 14.4683C13.6543 14.9387 13.2719 15.3212 12.8015 15.5608C12.2667 15.8333 11.5666 15.8333 10.1665 15.8333H5.6665C4.26637 15.8333 3.56631 15.8333 3.03153 15.5608C2.56112 15.3212 2.17867 14.9387 1.93899 14.4683C1.6665 13.9335 1.6665 13.2335 1.6665 11.8333V8.16666Z" stroke="black" stroke-width="2" stroke-linecap="round" stroke-linejoin="round"/>
</svg>
